HIERARCHY
ROOT ui
{
	 OFFSET 0 0 0
	 CHANNELS 3 XPosition YPosition Z Position
	 EndSite
	 {
	 OFFSET 0 -1 0
	 }
}
ROOT li
{
	 OFFSET 0 0 0
	 CHANNELS 3 XPosition YPosition Z Position
	 EndSite
	 {
	 OFFSET 0 -1 0
	 }
}
ROOT ul
{
	 OFFSET 0 0 0
	 CHANNELS 3 XPosition YPosition Z Position
	 EndSite
	 {
	 OFFSET 0 -1 0
	 }
}
ROOT ll
{
	 OFFSET 0 0 0
	 CHANNELS 3 XPosition YPosition Z Position
	 EndSite
	 {
	 OFFSET 0 -1 0
	 }
}
ROOT tt
{
	 OFFSET 0 0 0
	 CHANNELS 3 XPosition YPosition Z Position
	 EndSite
	 {
	 OFFSET 0 -1 0
	 }
}
ROOT tb
{
	 OFFSET 0 0 0
	 CHANNELS 3 XPosition YPosition Z Position
	 EndSite
	 {
	 OFFSET 0 -1 0
	 }
}
ROOT td
{
	 OFFSET 0 0 0
	 CHANNELS 3 XPosition YPosition Z Position
	 EndSite
	 {
	 OFFSET 0 -1 0
	 }
}
ROOT v
{
	 OFFSET 0 0 0
	 CHANNELS 3 XPosition YPosition Z Position
	 EndSite
	 {
	 OFFSET 0 -1 0
	 }
}
ROOT bn
{
	 OFFSET 0 0 0
	 CHANNELS 3 XPosition YPosition Z Position
	 EndSite
	 {
	 OFFSET 0 -1 0
	 }
}
MOTION
Frames: 13
Frame Time: 0.002
0.018955856323242187	0.0027666571140289305	0		0.5423200073242187	-2.50604150390625	0		-0.8642107543945312	0.311942626953125	0		-0.4493134155273438	-2.787543212890625	0		1.7161424560546874	-1.0227446899414063	0		2.969760986328125	-0.11050082397460938	0		4.1785439453125	0.49828497314453124	0		5.96443701171875	0.5577400512695313	0		-0.16624905395507814	5.92757763671875	0		
-0.007010528087615967	0.00278030800819397	0		0.4904425354003906	-2.497703125	0		-0.937171630859375	0.31255502319335937	0		-0.45208273315429687	-2.77081884765625	0		1.7014599609375	-0.9998814697265626	0		2.967930908203125	-0.09980796813964844	0		4.1613271484375	0.4781629028320312	0		5.97347119140625	0.55727783203125	0		-0.18129640197753907	5.9184541015625	0		
0.016012151718139647	-0.001830271005630493	0		0.5444397583007813	-2.50370751953125	0		-0.874087646484375	0.31244244384765624	0		-0.4558166198730469	-2.755087890625	0		1.689696044921875	-0.9870581665039062	0		2.969866455078125	-0.11116492462158203	0		4.15821484375	0.46286453247070314	0		5.96963720703125	0.5639828491210938	0		-0.18119686889648437	5.91813427734375	0		
-0.00985155200958252	-8.28242003917694E-4	0		0.494673828125	-2.49440380859375	0		-0.8699151611328125	0.3160669250488281	0		-0.4584983825683594	-2.739376708984375	0		1.6751075439453125	-0.964200439453125	0		2.929016357421875	-0.10897960662841796	0		4.149173828125	0.44964410400390625	0		5.97855712890625	0.5475313720703125	0		-0.20098542785644533	5.924060546875	0		
0.01630385971069336	-0.0024898788928985594	0		0.5248680419921875	-2.493115966796875	0		-0.8597586669921875	0.3146070861816406	0		-0.5160947875976563	-2.720978515625	0		1.6456722412109375	-0.9331560668945312	0		2.940021240234375	-0.12244926452636719	0		4.12524462890625	0.44161697387695314	0		5.97891650390625	0.5622000122070312	0		-0.20083085632324219	5.9227275390625	0		
0.0015626310110092164	3.594579994678497E-4	0		0.47929031372070313	-2.4778740234375	0		-0.9274841918945312	0.3191226501464844	0		-0.46872964477539064	-2.710915283203125	0		1.662172119140625	-0.9116937866210938	0		2.942443359375	-0.10680471801757813	0		4.11228662109375	0.42745791625976565	0		5.98813330078125	0.5617688598632813	0		-0.15044802856445313	5.93675390625	0		
0.019842435836791992	7.853189706802368E-4	0		0.5126890869140625	-2.469634521484375	0		-0.8701594848632812	0.323048583984375	0		-0.544206787109375	-2.692307373046875	0		1.6456890869140626	-0.8928145751953125	0		2.906665283203125	-0.11067391967773438	0		4.095477783203125	0.42135800170898435	0		5.99249853515625	0.5694171142578125	0		-0.03404508972167969	5.94993994140625	0		
-0.005840682983398437	7.600929737091065E-4	0		0.4880982971191406	-2.4646669921875	0		-0.8698485107421875	0.3226847839355469	0		-0.4896497802734375	-2.676349853515625	0		1.631293212890625	-0.8709609985351563	0		2.90391845703125	-0.11595456695556641	0		4.079435546875	0.39325729370117185	0		5.9926044921875	0.55313623046875	0		-0.16706794738769531	5.929265625	0		
0.017463241577148438	-0.003889436960220337	0		0.4905179443359375	-2.463044677734375	0		-0.9464282836914063	0.3282809753417969	0		-0.5530955810546875	-2.663912109375	0		1.564260498046875	-0.8234425659179687	0		2.90918798828125	-0.1233316879272461	0		4.058522705078125	0.3722272033691406	0		5.998052734375	0.5608060913085937	0		-0.18292898559570311	5.91910546875	0		
-0.005093658924102783	3.362499922513962E-5	0		0.4591580505371094	-2.44700048828125	0		-0.941993408203125	0.33184658813476564	0		-0.5534290771484375	-2.64627734375	0		1.5758292236328124	-0.81091943359375	0		2.899758056640625	-0.10951967620849609	0		4.050806640625	0.3640369873046875	0		5.994521484375	0.56760009765625	0		-0.23466822814941407	5.91739013671875	0		
-0.004675848960876465	-3.385559916496277E-4	0		0.4558145141601562	-2.432314208984375	0		-0.9324826049804688	0.33934161376953126	0		-0.5866531372070313	-2.622235595703125	0		1.5766026611328126	-0.784261474609375	0		2.89401513671875	-0.1227561798095703	0		4.03504248046875	0.34994964599609374	0		5.994927734375	0.567350341796875	0		-0.16721319580078126	5.9291708984375	0		
-0.0042390718460083	-7.157260179519653E-4	0		0.4832769470214844	-2.435019775390625	0		-0.8681585693359375	0.3301424560546875	0		-0.5501747436523438	-2.62407666015625	0		1.571295166015625	-0.765530517578125	0		2.91044091796875	-0.12427090454101562	0		4.0402080078125	0.3285992126464844	0		5.9912646484375	0.5601542358398437	0		-0.16690525817871094	5.9287900390625	0		
-0.0037904820442199705	-0.0010969350337982178	0		0.4499455871582031	-2.421965576171875	0		-0.940711669921875	0.330655517578125	0		-0.590476318359375	-2.608958251953125	0		1.569049072265625	-0.7428406372070312	0		2.9118544921875	-0.1275989227294922	0		4.027474853515625	0.31447265625	0		5.9997001953125	0.5598076171875	0		-0.18271377563476562	5.91860595703125	0		
